# File created by Blade
# Date/Time:  Wed Apr 08 17:12:12 2015
# Frame Rate: 120.000 fps
#------------------------------------------------------
:FULLY-SPECIFIED
:DEGREES
878
root 7.027845 38.323830 5.211778 127.485496 -44.112153 -131.645935
Spine 36.951344 2.697365 11.082055
Head -11.381013 15.519673 17.647540
LeftShoulder -6.262441 10.823445 20.415463
LeftArm 22.416271 5.342189 -72.882531
LeftForeArm 32.410915 -0.000000 47.985860
LeftHand -14.373067 0.000000 -8.587291
LeftHandThumb1 -26.253704 0.000000 33.147579
RightShoulder -28.562202 -46.539121 16.700409
RightArm 50.518791 -14.163420 64.061177
RightForeArm 19.789784 -0.000000 16.661256
RightHand 3.246502 0.000000 11.130984
RightHandThumb1 -24.326973 -0.000000 -32.862282
LeftUpLeg 11.892379 39.325755 38.979978
LeftLeg 14.373824 -0.000000 -0.000000
LeftFoot -13.447160 5.522363 -12.178939
LeftToeBase 5.515534 -0.000000 -0.000000
RightUpLeg -55.742868 -32.101729 -18.797973
RightLeg 127.828435 -0.000000 -0.000000
RightFoot 12.640449 10.806545 21.210495
RightToeBase -1.981285 -0.000000 0.000000
879
root 7.044092 38.345657 5.226396 127.894329 -44.040886 -131.252655
Spine 36.268131 2.561999 11.198967
Head -11.586275 15.580075 17.612692
LeftShoulder -6.288095 10.854210 20.388751
LeftArm 22.279509 5.983688 -73.212022
LeftForeArm 32.469871 -0.000000 47.458844
LeftHand -14.217656 -0.000000 -8.822699
LeftHandThumb1 -26.253704 0.000000 33.147579
RightShoulder -28.535411 -46.465986 16.703872
RightArm 50.356075 -13.513313 64.551188
RightForeArm 20.078162 -0.000000 16.885758
RightHand 3.421458 -0.000000 11.102741
RightHandThumb1 -24.326973 -0.000000 -32.862282
LeftUpLeg 11.155922 39.661692 38.663037
LeftLeg 14.082350 -0.000000 -0.000000
LeftFoot -13.310831 5.513244 -12.180816
LeftToeBase 5.579982 -0.000000 -0.000000
RightUpLeg -55.737693 -32.002960 -19.293036
RightLeg 127.817392 -0.000000 -0.000000
RightFoot 12.478176 10.785533 20.978096
RightToeBase -2.083669 -0.000000 0.000000
880
root 7.021723 38.371242 5.236020 127.758816 -43.966328 -130.931345
Spine 36.267884 2.336370 11.388100
Head -11.906829 15.647480 17.426280
LeftShoulder -6.303547 10.872085 20.342821
LeftArm 22.235310 6.628148 -73.508188
LeftForeArm 32.422787 -0.000000 46.942593
LeftHand -14.172622 0.000000 -9.036377
LeftHandThumb1 -26.253704 0.000000 33.147579
RightShoulder -28.453911 -46.350473 16.554416
RightArm 50.229451 -12.927970 65.020937
RightForeArm 20.346027 -0.000000 17.106317
RightHand 3.555919 -0.000000 10.822862
RightHandThumb1 -24.326973 -0.000000 -32.862282
LeftUpLeg 11.256306 39.703176 38.772886
LeftLeg 13.586438 -0.000000 -0.000000
LeftFoot -13.114152 5.458853 -12.202627
LeftToeBase 5.706290 -0.000000 -0.000000
RightUpLeg -54.892271 -31.694081 -20.304612
RightLeg 127.785186 -0.000000 -0.000000
RightFoot 12.237524 10.783310 20.620545
RightToeBase -1.783497 -0.000000 0.000000
881
root 6.992905 38.393559 5.239685 127.690132 -43.788813 -130.783020
Spine 36.335111 2.256406 11.582887
Head -12.195762 15.699637 17.285788
LeftShoulder -6.333365 10.921011 20.312322
LeftArm 22.204951 7.276918 -73.779000
LeftForeArm 32.431837 -0.000000 46.463617
LeftHand -14.073364 0.000000 -9.401451
LeftHandThumb1 -26.253704 0.000000 33.147579
RightShoulder -28.364913 -46.262543 16.432939
RightArm 50.072480 -12.341611 65.463555
RightForeArm 20.557168 -0.000000 17.399494
RightHand 3.765819 -0.000000 10.470655
RightHandThumb1 -24.326973 -0.000000 -32.862282
LeftUpLeg 11.626687 39.895236 39.064130
LeftLeg 13.042934 -0.000000 -0.000000
LeftFoot -12.922390 5.326960 -12.195017
LeftToeBase 5.835708 -0.000000 -0.000000
RightUpLeg -54.063326 -31.180484 -21.286822
RightLeg 127.768046 -0.000000 -0.000000
RightFoot 11.873186 10.647679 20.198869
RightToeBase -1.462587 -0.000000 0.000000
882
root 6.966906 38.412813 5.247797 127.587036 -43.653563 -130.590387
Spine 36.398704 2.133916 11.790211
Head -12.456568 15.725398 17.136855
LeftShoulder -6.339623 10.944392 20.276273
LeftArm 22.180038 7.966781 -74.011579
LeftForeArm 32.306811 -0.000000 45.997320
LeftHand -14.149786 -0.000000 -9.284559
LeftHandThumb1 -26.253704 0.000000 33.147579
RightShoulder -28.315775 -46.216825 16.351200
RightArm 49.990698 -11.725668 65.905958
RightForeArm 20.811981 -0.000000 17.637914
RightHand 3.967811 0.000000 10.043640
RightHandThumb1 -24.326973 -0.000000 -32.862282
LeftUpLeg 11.912186 40.047569 39.299667
LeftLeg 12.556009 -0.000000 -0.000000
LeftFoot -12.748398 5.203893 -12.164461
LeftToeBase 5.955219 -0.000000 -0.000000
RightUpLeg -53.206648 -30.664755 -22.288056
RightLeg 127.764401 -0.000000 -0.000000
RightFoot 11.484865 10.447579 19.759309
RightToeBase -1.623421 -0.000000 0.000000
883
root 6.945726 38.431279 5.260682 127.287004 -43.705480 -130.103597
Spine 36.428966 1.750655 11.985506
Head -12.752050 15.741499 17.007585
LeftShoulder -6.344721 10.926995 20.263466
LeftArm 22.152645 8.720174 -74.163546
LeftForeArm 32.272437 -0.000000 45.563616
LeftHand -13.796632 -0.000000 -9.885969
LeftHandThumb1 -26.253704 0.000000 33.147579
RightShoulder -28.246136 -46.094399 16.265057
RightArm 49.860678 -11.113113 66.360636
RightForeArm 21.121285 -0.000000 17.852153
RightHand 4.148589 -0.000000 9.536683
RightHandThumb1 -24.326973 -0.000000 -32.862282
LeftUpLeg 11.811735 39.846949 39.259713
LeftLeg 12.173532 -0.000000 -0.000000
LeftFoot -12.613433 5.224078 -12.119713
LeftToeBase 5.998384 -0.000000 -0.000000
RightUpLeg -52.154523 -30.388753 -23.395151
RightLeg 127.747175 -0.000000 -0.000000
RightFoot 11.006213 10.243184 19.271813
RightToeBase -1.572854 -0.000000 0.000000
884
root 6.916048 38.449097 5.267272 127.025018 -43.652802 -129.784017
Spine 36.544035 1.496898 12.190848
Head -12.956207 15.792591 16.914764
LeftShoulder -6.349912 10.919009 20.269162
LeftArm 22.099538 9.471525 -74.329557
LeftForeArm 32.248388 -0.000000 45.152591
LeftHand -13.657309 -0.000000 -10.004074
LeftHandThumb1 -26.253704 0.000000 33.147579
RightShoulder -28.170547 -46.029146 16.178014
RightArm 49.782643 -10.540032 66.783611
RightForeArm 21.487107 -0.000000 18.014187
RightHand 4.350844 -0.000000 8.797510
RightHandThumb1 -24.326973 -0.000000 -32.862282
LeftUpLeg 11.964947 39.741529 39.413161
LeftLeg 11.810738 -0.000000 -0.000000
LeftFoot -12.486367 5.189557 -12.092138
LeftToeBase 6.065865 -0.000000 -0.000000
RightUpLeg -51.136285 -29.940642 -24.404607
RightLeg 127.787505 -0.000000 -0.000000
RightFoot 10.298225 9.857369 18.226560
RightToeBase -1.661117 -0.000000 0.000000
885
root 6.885680 38.467375 5.271565 126.738736 -43.592193 -129.458738
Spine 36.657567 1.266245 12.417769
Head -13.104731 15.812672 16.873525
LeftShoulder -6.327419 10.890892 20.303888
LeftArm 22.031040 10.227083 -74.507309
LeftForeArm 32.203365 0.000000 44.779943
LeftHand -13.867737 -0.000000 -9.858954
LeftHandThumb1 -26.253704 0.000000 33.147579
RightShoulder -28.056650 -45.953239 16.050762
RightArm 49.685491 -9.916073 67.327917
RightForeArm 21.841138 0.000000 18.040272
RightHand 4.609955 -0.000000 8.242789
RightHandThumb1 -24.326973 -0.000000 -32.862282
LeftUpLeg 12.089453 39.527723 39.565596
LeftLeg 11.517914 -0.000000 -0.000000
LeftFoot -12.394309 5.190957 -12.178757
LeftToeBase 6.094136 -0.000000 -0.000000
RightUpLeg -50.097170 -29.438467 -25.375478
RightLeg 127.846903 -0.000000 -0.000000
RightFoot 9.554753 9.412990 17.371593
RightToeBase -1.550212 -0.000000 0.000000
886
root 6.855213 38.481995 5.276730 126.520162 -43.531383 -129.215145
Spine 36.769889 1.058123 12.577541
Head -13.230407 15.875395 16.878924
LeftShoulder -6.357120 10.831653 20.360570
LeftArm 21.924416 11.083282 -74.622897
LeftForeArm 32.065578 -0.000000 44.427836
LeftHand -13.922586 0.000000 -9.937641
LeftHandThumb1 -26.253704 0.000000 33.147579
RightShoulder -27.969518 -45.862288 15.988812
RightArm 49.610029 -9.462603 67.616883
RightForeArm 22.383197 -0.000000 18.171606
RightHand 4.764146 0.000000 7.193510
RightHandThumb1 -24.326973 -0.000000 -32.862282
LeftUpLeg 12.225552 39.314494 39.687941
LeftLeg 11.253195 -0.000000 -0.000000
LeftFoot -12.315159 5.209538 -12.270381
LeftToeBase 6.160363 -0.000000 -0.000000
RightUpLeg -49.140698 -28.886353 -26.325293
RightLeg 127.931181 -0.000000 -0.000000
RightFoot 8.808191 8.926796 16.309789
RightToeBase -1.268700 -0.000000 0.000000
887
root 6.824832 38.494555 5.276810 126.468046 -43.395454 -129.136881
Spine 36.828633 1.039146 12.735363
Head -13.306187 15.869273 16.935316
LeftShoulder -6.391461 10.802435 20.413928
LeftArm 21.868090 11.971049 -74.666233
LeftForeArm 31.959323 -0.000000 44.073863
LeftHand -14.000685 -0.000000 -9.952108
LeftHandThumb1 -26.253704 0.000000 33.147579
RightShoulder -27.874615 -45.752907 15.917660
RightArm 49.469238 -8.863157 68.146123
RightForeArm 22.673104 0.000000 18.182838
RightHand 4.926992 -0.000000 6.621685
RightHandThumb1 -24.326973 -0.000000 -32.862282
LeftUpLeg 12.435460 39.253497 39.875071
LeftLeg 11.034381 -0.000000 -0.000000
LeftFoot -12.247913 5.160274 -12.405003
LeftToeBase 6.168805 -0.000000 -0.000000
RightUpLeg -48.380283 -28.217251 -27.173621
RightLeg 128.055707 -0.000000 -0.000000
RightFoot 8.159356 8.397330 15.406794
RightToeBase -1.096027 -0.000000 0.000000
888
root 6.794691 38.503688 5.280419 126.384251 -43.325121 -129.021904
Spine 36.881052 0.996467 12.880144
Head -13.373326 15.835570 17.026964
LeftShoulder -6.367910 10.736400 20.499690
LeftArm 21.745838 12.837065 -74.718900
LeftForeArm 31.883195 0.000000 43.829907
LeftHand -13.626113 -0.000000 -10.336471
LeftHandThumb1 -26.253704 0.000000 33.147579
RightShoulder -27.804402 -45.634230 15.869301
RightArm 49.303569 -8.283598 68.660921
RightForeArm 22.933469 -0.000000 18.233823
RightHand 5.079557 0.000000 5.987914
RightHandThumb1 -24.326973 -0.000000 -32.862282
LeftUpLeg 12.549682 39.123920 39.967794
LeftLeg 10.877209 -0.000000 -0.000000
LeftFoot -12.218725 5.155275 -12.528310
LeftToeBase 6.221673 -0.000000 -0.000000
RightUpLeg -47.616319 -27.620590 -28.049773
RightLeg 128.178018 -0.000000 -0.000000
RightFoot 7.685187 7.828380 14.594758
RightToeBase -1.179682 -0.000000 0.000000
889
root 6.761402 38.513793 5.284487 126.133023 -43.285382 -128.783132
Spine 37.022328 0.807304 13.055145
Head -13.469654 15.803147 17.084995
LeftShoulder -6.370141 10.628702 20.575546
LeftArm 21.577118 13.704708 -74.774119
LeftForeArm 31.877067 0.000000 43.602161
LeftHand -13.911481 0.000000 -10.066418
LeftHandThumb1 -26.253704 0.000000 33.147579
RightShoulder -27.648277 -45.497764 15.727244
RightArm 49.081392 -7.689106 69.219768
RightForeArm 23.087949 -0.000000 18.360726
RightHand 5.227606 0.000000 5.356328
RightHandThumb1 -24.326973 -0.000000 -32.862282
LeftUpLeg 12.632061 38.870758 40.080122
LeftLeg 10.768140 -0.000000 -0.000000
LeftFoot -12.214437 5.180899 -12.624208
LeftToeBase 6.213679 -0.000000 -0.000000
RightUpLeg -46.697341 -27.101221 -28.924471
RightLeg 128.302889 -0.000000 -0.000000
RightFoot 7.241817 7.248894 13.815926
RightToeBase -0.980284 -0.000000 0.000000
